# xmcd
#
# Track frame offsets: 
#        150
#        14637
#        30310
#        74355
#        94075
#        107305
#        116032
#        132295
#        146770
#        163042
#        186150
#        250507
#        277507
#
# Disc length: 3964 seconds
#
# Revision: 2
# Processed by: cddbd v1.5.2PL0 Copyright (c) Steve Scherf et al.
# Submitted via: ExactAudioCopy v1.3
#
DISCID=a80f7a0d
DTITLE=Various Artist - Portrait of Yo-Yo Ma
DYEAR=1989
DGENRE=Classical
TTITLE0=Camille Saint-Saens - 'The Swan' from The Carnival of the Anim
TTITLE0=als
TTITLE1=J.S.Bach - 'Bourree' from Suite No.3 for Unaccompained Cello i
TTITLE1=n C major, BWV 1009
TTITLE2=Beethoven - 7 Variations on the theme 'Bei Mannern, Welche Lie
TTITLE2=be Fuhlen'
TTITLE3=Traditional Japanese Melody - Sakura, Sakura
TTITLE4=Antonin Dvorak-Fritz Kreisler - Songs My Mother Taught Me, Op.
TTITLE4=55, No.4
TTITLE5=Fritz Kreisler - Schon Rosmarin
TTITLE6=Fritz Kreisler - Liebesleid
TTITLE7=Fritz Kreisler - Liebesfreud
TTITLE8=Fritz Kreisler - Tambourin Chinois
TTITLE9=Niccolo Paganini - Caprice No.24
TTITLE10=Joseph Haydn - Concerto for Cello and Orchestra, Op.101 - 1. Al
TTITLE10=legro moderato
TTITLE11=Joseph Haydn - Concerto for Cello and Orchestra, Op.101 - 2. Ad
TTITLE11=agio
TTITLE12=Joseph Haydn - Concerto for Cello and Orchestra, Op.101 - 3. Al
TTITLE12=legro
EXTD=
EXTT0=
EXTT1=
EXTT2=
EXTT3=
EXTT4=
EXTT5=
EXTT6=
EXTT7=
EXTT8=
EXTT9=
EXTT10=
EXTT11=
EXTT12=
PLAYORDER=
